# xmcd
#
# Track frame offsets: 
#        150
#        21081
#        34116
#        51716
#        68149
#        82479
#        100998
#        120616
#        136204
#        153332
#        174702
#
# Disc length: 2587 seconds
#
# Revision: 9
# Processed by: cddbd v1.5.2PL0 Copyright (c) Steve Scherf et al.
# Submitted via: ExactAudioCopy v1.3
#
DISCID=9c0a190b
DTITLE=Kenny Chesney - All I Want For Christmas Is A Real Good Tan
DYEAR=2003
DGENRE=Country
TTITLE0=All I Want For Christmas Is A Real Good Tan
TTITLE1=Jingle Bells
TTITLE2=I'll Be Home For Christmas
TTITLE3=Christmas In Dixie
TTITLE4=Thank God For Kids
TTITLE5=Silver Bells
TTITLE6=Just A Kid
TTITLE7=The Angel At The Top Of My Tree
TTITLE8=Pretty Paper
TTITLE9=Silent Night
TTITLE10=O Little Town Of Bethlehem
EXTD=YEAR: 2003
EXTT0=
EXTT1=
EXTT2=
EXTT3=
EXTT4=
EXTT5=
EXTT6=
EXTT7=
EXTT8=
EXTT9=
EXTT10=
PLAYORDER=
